<svg width="332" height="128" viewBox="0 0 332 128" fill="none" xmlns="http://www.w3.org/2000/svg">
<path d="M2.19346 93.8955V92.8984L3.48972 92.5993C4.75275 92.2669 5.74987 91.7019 6.4811 90.9042C7.21232 90.04 7.57793 88.9431 7.57793 87.6136C7.57793 85.1541 7.57793 82.7277 7.57793 80.3346C7.64441 77.8751 7.67765 75.4155 7.67765 72.9559V47.9281H2.09375V46.8313L4.28742 46.4324C5.61692 46.2995 6.58081 45.8341 7.17908 45.0364C7.77736 44.2387 8.20944 43.1419 8.47534 41.7459C9.14009 39.1534 10.104 36.8933 11.367 34.9655C12.6965 32.9712 14.1922 31.1432 15.8541 29.4813C18.3801 27.0882 21.0391 25.4263 23.8311 24.4957C26.6895 23.4986 29.4814 23 32.2069 23C34.8659 23 37.2922 23.565 39.4859 24.6951C41.6796 25.7587 42.7764 27.5535 42.7764 30.0796C42.7764 31.8744 42.2446 33.3036 41.181 34.3672C40.1174 35.3643 38.6217 35.8629 36.694 35.8629C35.0986 35.8629 33.6361 35.4308 32.3066 34.5666C30.9771 33.7025 29.6809 32.1735 28.4178 29.9799L27.0219 28.2848C26.2906 27.3541 25.5594 26.922 24.8282 26.9885C24.097 26.9885 23.5652 27.5203 23.2328 28.5839C22.7675 30.9105 22.4018 33.636 22.1359 36.7603C21.9365 39.8846 21.8368 42.9425 21.8368 45.9339H33.0046V47.9281H21.8368V87.4142C21.8368 89.9403 23.1663 91.5689 25.8253 92.3001L28.3181 92.8984V93.8955H2.19346Z" fill="#333333"/>
<path d="M63.2229 95.3912C58.1708 95.3912 53.7835 94.3609 50.0609 92.3001C46.3383 90.1729 43.4466 87.1816 41.3859 83.326C39.3916 79.4705 38.3945 74.9502 38.3945 69.7651C38.3945 64.5801 39.4581 60.093 41.5853 56.3039C43.779 52.5149 46.7371 49.59 50.4597 47.5293C54.2488 45.4685 58.5032 44.4382 63.2229 44.4382C67.9426 44.4382 72.1638 45.4685 75.8864 47.5293C79.609 49.5235 82.5339 52.4152 84.6611 56.2042C86.8548 59.9933 87.9516 64.5136 87.9516 69.7651C87.9516 75.0166 86.9212 79.5702 84.8605 83.4257C82.8663 87.2148 80.0078 90.1729 76.2852 92.3001C72.6291 94.3609 68.275 95.3912 63.2229 95.3912ZM63.2229 93.397C65.5495 93.397 67.4108 92.7322 68.8068 91.4027C70.2028 90.0732 71.1999 87.7134 71.7982 84.3231C72.4629 80.9329 72.7953 76.1467 72.7953 69.9645C72.7953 63.7159 72.4629 58.8965 71.7982 55.5062C71.1999 52.116 70.2028 49.7562 68.8068 48.4267C67.4108 47.0972 65.5495 46.4324 63.2229 46.4324C60.8963 46.4324 59.0018 47.0972 57.5393 48.4267C56.1433 49.7562 55.113 52.116 54.4482 55.5062C53.8499 58.8965 53.5508 63.7159 53.5508 69.9645C53.5508 76.1467 53.8499 80.9329 54.4482 84.3231C55.113 87.7134 56.1433 90.0732 57.5393 91.4027C59.0018 92.7322 60.8963 93.397 63.2229 93.397Z" fill="#333333"/>
<path d="M95.3225 93.8955V92.8984L96.7185 92.4996C97.9815 92.1672 98.8457 91.6021 99.311 90.8044C99.8428 90.0067 100.142 88.9431 100.208 87.6136V56.4037C100.208 54.9412 99.9758 53.8776 99.5104 53.2129C99.0451 52.4816 98.1477 51.9831 96.8182 51.7172L95.3225 51.3183V50.3212L112.373 44.5379L113.37 45.535L114.168 52.3155C116.362 50.1218 118.855 48.2605 121.647 46.7316C124.505 45.2026 127.463 44.4382 130.521 44.4382C133.712 44.4382 136.271 45.1029 138.199 46.4324C140.127 47.6954 141.589 49.6897 142.586 52.4152C145.179 49.9556 147.971 48.0278 150.962 46.6318C154.02 45.1694 156.978 44.4382 159.836 44.4382C164.556 44.4382 168.013 45.5682 170.207 47.8284C172.467 50.0885 173.597 53.6449 173.597 58.4976V87.7134C173.597 90.3059 174.793 91.9345 177.186 92.5993L178.283 92.8984V93.8955H155.25V92.8984L156.247 92.5993C157.51 92.2004 158.374 91.6021 158.839 90.8044C159.371 90.0067 159.637 88.9431 159.637 87.6136V57.1016C159.637 54.3097 159.138 52.4152 158.141 51.418C157.144 50.3544 155.549 49.8226 153.355 49.8226C151.627 49.8226 149.932 50.2215 148.27 51.0192C146.674 51.7504 144.979 52.8805 143.184 54.4094C143.517 55.473 143.716 56.6363 143.783 57.8993C143.916 59.1624 143.982 60.4919 143.982 61.8878V87.7134C144.049 90.3059 145.245 91.9345 147.572 92.5993L148.469 92.8984V93.8955H125.336V92.8984L126.732 92.4996C127.995 92.1007 128.859 91.5357 129.324 90.8044C129.856 90.0067 130.122 88.9431 130.122 87.6136V57.2014C130.122 54.5424 129.624 52.6478 128.626 51.5178C127.696 50.3877 126.067 49.8226 123.741 49.8226C122.212 49.8226 120.683 50.2215 119.154 51.0192C117.625 51.7504 116.029 52.8473 114.368 54.3097V87.7134C114.368 90.3059 115.531 91.9345 117.858 92.5993L118.755 92.8984V93.8955H95.3225Z" fill="#333333"/>
<path d="M210.201 44.4382C214.521 44.4382 218.211 45.3356 221.269 47.1304C224.327 48.8588 226.653 51.2519 228.249 54.3097C229.91 57.3011 230.741 60.7245 230.741 64.5801C230.741 65.3113 230.708 66.0758 230.642 66.8735C230.575 67.6047 230.442 68.2694 230.243 68.8677H200.528C200.595 76.047 201.858 81.2321 204.318 84.4229C206.844 87.5472 210.566 89.1093 215.485 89.1093C218.809 89.1093 221.501 88.5775 223.562 87.5139C225.623 86.4503 227.551 84.8882 229.345 82.8275L230.342 83.7249C228.282 87.381 225.523 90.2394 222.066 92.3001C218.676 94.3609 214.588 95.3912 209.802 95.3912C205.082 95.3912 200.894 94.3941 197.238 92.3998C193.582 90.3391 190.723 87.4142 188.663 83.6252C186.602 79.8361 185.572 75.3158 185.572 70.0643C185.572 64.6133 186.768 59.9933 189.161 56.2042C191.554 52.3487 194.612 49.4238 198.335 47.4295C202.124 45.4353 206.079 44.4382 210.201 44.4382ZM209.901 46.4324C207.974 46.4324 206.312 47.0307 204.916 48.2272C203.586 49.3573 202.523 51.418 201.725 54.4094C200.994 57.3343 200.595 61.489 200.528 66.8735H217.579C218.244 59.6277 217.978 54.4094 216.782 51.2186C215.585 48.0278 213.292 46.4324 209.901 46.4324Z" fill="#333333"/>
<path d="M238.702 93.8955V92.8984L240.098 92.4996C242.425 91.8348 243.588 90.2062 243.588 87.6136V56.4037C243.588 54.9412 243.355 53.8776 242.89 53.2129C242.425 52.4816 241.527 51.9831 240.198 51.7172L238.702 51.3183V50.3212L255.753 44.5379L256.75 45.535L257.548 51.5178C259.874 49.457 262.5 47.7619 265.425 46.4324C268.35 45.1029 271.241 44.4382 274.1 44.4382C278.487 44.4382 281.844 45.6347 284.171 48.0278C286.564 50.4209 287.76 54.077 287.76 58.9962V87.7134C287.76 90.3059 289.024 91.9345 291.55 92.5993L292.447 92.8984V93.8955H268.915V92.8984L270.211 92.4996C272.538 91.7683 273.701 90.1397 273.701 87.6136V55.8054C273.701 51.551 271.574 49.4238 267.319 49.4238C264.395 49.4238 261.204 50.8862 257.747 53.8111V87.7134C257.747 90.3059 258.91 91.9345 261.237 92.5993L262.134 92.8984V93.8955H238.702Z" fill="#333333"/>
<path d="M317.798 95.3912C313.544 95.3912 310.22 94.3276 307.827 92.2004C305.5 90.0732 304.337 86.683 304.337 82.0298V47.9281H297.457V46.931L299.85 46.5321C301.911 46.0668 303.672 45.4021 305.135 44.5379C306.664 43.6737 308.159 42.5104 309.622 41.0479L317.798 31.9741H318.795L318.496 45.9339H329.664V47.9281H318.396V83.8246C318.396 86.1512 318.895 87.9128 319.892 89.1093C320.956 90.3059 322.285 90.9042 323.881 90.9042C325.276 90.9042 326.506 90.5718 327.57 89.907C328.633 89.1758 329.697 88.2119 330.761 87.0154L331.758 88.0125C330.428 90.2726 328.6 92.0675 326.274 93.397C323.947 94.7265 321.122 95.3912 317.798 95.3912Z" fill="#333333"/>
</svg>
